<mxfile host="app.diagrams.net" modified="2023-09-07T09:06:38.145Z" agent="Mozilla/5.0 (Windows NT 10.0; Win64; x64) AppleWebKit/537.36 (KHTML, like Gecko) Chrome/116.0.0.0 Safari/537.36" etag="FVeS8P0CL19RDK4pLHXG" version="21.7.2" type="device">
  <diagram name="Page-1" id="LkjrgGH86wgl8y-zwnit">
    <mxGraphModel dx="880" dy="470" grid="1" gridSize="10" guides="1" tooltips="1" connect="1" arrows="1" fold="1" page="1" pageScale="1" pageWidth="850" pageHeight="1100" math="0" shadow="0">
      <root>
        <mxCell id="0" />
        <mxCell id="1" parent="0" />
        <mxCell id="mFl43g079NNbkRZYTGJ_-1" value="&lt;b&gt;&lt;font style=&quot;font-size: 13px;&quot;&gt;&lt;u&gt;Extraction using string manipulation&lt;/u&gt;&lt;/font&gt;&lt;/b&gt;" style="text;html=1;align=center;verticalAlign=middle;resizable=0;points=[];autosize=1;strokeColor=none;fillColor=none;" vertex="1" parent="1">
          <mxGeometry x="30" y="10" width="250" height="30" as="geometry" />
        </mxCell>
        <mxCell id="mFl43g079NNbkRZYTGJ_-2" value="&lt;b style=&quot;border-color: var(--border-color);&quot;&gt;&lt;font style=&quot;border-color: var(--border-color); font-size: 13px;&quot;&gt;&lt;u&gt;Extraction using string manipulation&lt;/u&gt;&lt;/font&gt;&lt;/b&gt;" style="text;html=1;align=center;verticalAlign=middle;resizable=0;points=[];autosize=1;strokeColor=none;fillColor=none;" vertex="1" parent="1">
          <mxGeometry x="30" y="210" width="250" height="30" as="geometry" />
        </mxCell>
        <mxCell id="mFl43g079NNbkRZYTGJ_-20" value="" style="edgeStyle=orthogonalEdgeStyle;rounded=0;orthogonalLoop=1;jettySize=auto;html=1;" edge="1" parent="1" source="mFl43g079NNbkRZYTGJ_-3" target="mFl43g079NNbkRZYTGJ_-5">
          <mxGeometry relative="1" as="geometry" />
        </mxCell>
        <mxCell id="mFl43g079NNbkRZYTGJ_-3" value="Start" style="ellipse;whiteSpace=wrap;html=1;" vertex="1" parent="1">
          <mxGeometry x="50" y="70" width="80" height="50" as="geometry" />
        </mxCell>
        <mxCell id="mFl43g079NNbkRZYTGJ_-18" value="" style="edgeStyle=orthogonalEdgeStyle;rounded=0;orthogonalLoop=1;jettySize=auto;html=1;" edge="1" parent="1" source="mFl43g079NNbkRZYTGJ_-4" target="mFl43g079NNbkRZYTGJ_-9">
          <mxGeometry relative="1" as="geometry" />
        </mxCell>
        <mxCell id="mFl43g079NNbkRZYTGJ_-4" value="Start" style="ellipse;whiteSpace=wrap;html=1;" vertex="1" parent="1">
          <mxGeometry x="50" y="270" width="80" height="50" as="geometry" />
        </mxCell>
        <mxCell id="mFl43g079NNbkRZYTGJ_-5" value="Prompt user to input a sentence with an email" style="rounded=0;whiteSpace=wrap;html=1;" vertex="1" parent="1">
          <mxGeometry x="190" y="65" width="130" height="60" as="geometry" />
        </mxCell>
        <mxCell id="mFl43g079NNbkRZYTGJ_-6" value="use string manipulation to extract email from the user input" style="rounded=0;whiteSpace=wrap;html=1;" vertex="1" parent="1">
          <mxGeometry x="380" y="65" width="140" height="60" as="geometry" />
        </mxCell>
        <mxCell id="mFl43g079NNbkRZYTGJ_-7" value="Send an email to the user to acknowledge receipt of his/her information" style="rounded=0;whiteSpace=wrap;html=1;" vertex="1" parent="1">
          <mxGeometry x="540" y="65" width="190" height="60" as="geometry" />
        </mxCell>
        <mxCell id="mFl43g079NNbkRZYTGJ_-8" value="End" style="ellipse;whiteSpace=wrap;html=1;" vertex="1" parent="1">
          <mxGeometry x="750" y="55" width="90" height="65" as="geometry" />
        </mxCell>
        <mxCell id="mFl43g079NNbkRZYTGJ_-17" value="" style="edgeStyle=orthogonalEdgeStyle;rounded=0;orthogonalLoop=1;jettySize=auto;html=1;" edge="1" parent="1" source="mFl43g079NNbkRZYTGJ_-9" target="mFl43g079NNbkRZYTGJ_-10">
          <mxGeometry relative="1" as="geometry" />
        </mxCell>
        <mxCell id="mFl43g079NNbkRZYTGJ_-9" value="&#xa;&lt;span style=&quot;color: rgb(0, 0, 0); font-family: Helvetica; font-size: 12px; font-style: normal; font-variant-ligatures: normal; font-variant-caps: normal; font-weight: 400; letter-spacing: normal; orphans: 2; text-align: center; text-indent: 0px; text-transform: none; widows: 2; word-spacing: 0px; -webkit-text-stroke-width: 0px; background-color: rgb(251, 251, 251); text-decoration-thickness: initial; text-decoration-style: initial; text-decoration-color: initial; float: none; display: inline !important;&quot;&gt;Prompt user to input a sentence with an email&lt;/span&gt;&#xa;&#xa;" style="rounded=0;whiteSpace=wrap;html=1;" vertex="1" parent="1">
          <mxGeometry x="190" y="260" width="150" height="60" as="geometry" />
        </mxCell>
        <mxCell id="mFl43g079NNbkRZYTGJ_-16" value="" style="edgeStyle=orthogonalEdgeStyle;rounded=0;orthogonalLoop=1;jettySize=auto;html=1;" edge="1" parent="1" source="mFl43g079NNbkRZYTGJ_-10" target="mFl43g079NNbkRZYTGJ_-11">
          <mxGeometry relative="1" as="geometry" />
        </mxCell>
        <mxCell id="mFl43g079NNbkRZYTGJ_-10" value="use REGEX to extract email from the user input" style="rounded=0;whiteSpace=wrap;html=1;" vertex="1" parent="1">
          <mxGeometry x="360" y="260" width="140" height="60" as="geometry" />
        </mxCell>
        <mxCell id="mFl43g079NNbkRZYTGJ_-19" value="" style="edgeStyle=orthogonalEdgeStyle;rounded=0;orthogonalLoop=1;jettySize=auto;html=1;" edge="1" parent="1" source="mFl43g079NNbkRZYTGJ_-11" target="mFl43g079NNbkRZYTGJ_-12">
          <mxGeometry relative="1" as="geometry" />
        </mxCell>
        <mxCell id="mFl43g079NNbkRZYTGJ_-11" value="Send an email to the user to acknowledge receipt of his/her information" style="rounded=0;whiteSpace=wrap;html=1;" vertex="1" parent="1">
          <mxGeometry x="530" y="260" width="180" height="60" as="geometry" />
        </mxCell>
        <mxCell id="mFl43g079NNbkRZYTGJ_-12" value="End" style="ellipse;whiteSpace=wrap;html=1;" vertex="1" parent="1">
          <mxGeometry x="740" y="260" width="90" height="65" as="geometry" />
        </mxCell>
        <mxCell id="mFl43g079NNbkRZYTGJ_-13" value="" style="endArrow=classic;html=1;rounded=0;entryX=0;entryY=0.5;entryDx=0;entryDy=0;" edge="1" parent="1" source="mFl43g079NNbkRZYTGJ_-6" target="mFl43g079NNbkRZYTGJ_-7">
          <mxGeometry width="50" height="50" relative="1" as="geometry">
            <mxPoint x="360" y="270" as="sourcePoint" />
            <mxPoint x="410" y="220" as="targetPoint" />
          </mxGeometry>
        </mxCell>
        <mxCell id="mFl43g079NNbkRZYTGJ_-14" value="" style="endArrow=classic;html=1;rounded=0;entryX=0;entryY=0.5;entryDx=0;entryDy=0;exitX=1;exitY=0.5;exitDx=0;exitDy=0;" edge="1" parent="1" source="mFl43g079NNbkRZYTGJ_-5" target="mFl43g079NNbkRZYTGJ_-6">
          <mxGeometry width="50" height="50" relative="1" as="geometry">
            <mxPoint x="360" y="270" as="sourcePoint" />
            <mxPoint x="410" y="220" as="targetPoint" />
          </mxGeometry>
        </mxCell>
        <mxCell id="mFl43g079NNbkRZYTGJ_-15" value="" style="endArrow=classic;html=1;rounded=0;entryX=0;entryY=0.5;entryDx=0;entryDy=0;exitX=1.019;exitY=0.367;exitDx=0;exitDy=0;exitPerimeter=0;" edge="1" parent="1" source="mFl43g079NNbkRZYTGJ_-7" target="mFl43g079NNbkRZYTGJ_-8">
          <mxGeometry width="50" height="50" relative="1" as="geometry">
            <mxPoint x="360" y="270" as="sourcePoint" />
            <mxPoint x="410" y="220" as="targetPoint" />
          </mxGeometry>
        </mxCell>
        <mxCell id="mFl43g079NNbkRZYTGJ_-21" value="internal app&amp;nbsp;" style="text;html=1;align=center;verticalAlign=middle;resizable=0;points=[];autosize=1;strokeColor=none;fillColor=none;" vertex="1" parent="1">
          <mxGeometry x="210" y="120" width="90" height="30" as="geometry" />
        </mxCell>
        <mxCell id="mFl43g079NNbkRZYTGJ_-22" value="internal app" style="text;html=1;align=center;verticalAlign=middle;resizable=0;points=[];autosize=1;strokeColor=none;fillColor=none;" vertex="1" parent="1">
          <mxGeometry x="400" y="120" width="90" height="30" as="geometry" />
        </mxCell>
        <mxCell id="mFl43g079NNbkRZYTGJ_-23" value="internal app, notepad and mail" style="text;html=1;align=center;verticalAlign=middle;resizable=0;points=[];autosize=1;strokeColor=none;fillColor=none;" vertex="1" parent="1">
          <mxGeometry x="550" y="125" width="180" height="30" as="geometry" />
        </mxCell>
        <mxCell id="mFl43g079NNbkRZYTGJ_-24" value="internal app&amp;nbsp;" style="text;html=1;align=center;verticalAlign=middle;resizable=0;points=[];autosize=1;strokeColor=none;fillColor=none;" vertex="1" parent="1">
          <mxGeometry x="210" y="320" width="90" height="30" as="geometry" />
        </mxCell>
        <mxCell id="mFl43g079NNbkRZYTGJ_-26" value="internal app" style="text;html=1;align=center;verticalAlign=middle;resizable=0;points=[];autosize=1;strokeColor=none;fillColor=none;" vertex="1" parent="1">
          <mxGeometry x="375" y="318" width="90" height="30" as="geometry" />
        </mxCell>
        <mxCell id="mFl43g079NNbkRZYTGJ_-27" value="internal app, notepad and mail" style="text;html=1;align=center;verticalAlign=middle;resizable=0;points=[];autosize=1;strokeColor=none;fillColor=none;" vertex="1" parent="1">
          <mxGeometry x="530" y="318" width="180" height="30" as="geometry" />
        </mxCell>
        <mxCell id="mFl43g079NNbkRZYTGJ_-28" value="" style="endArrow=none;dashed=1;html=1;dashPattern=1 3;strokeWidth=2;rounded=0;entryX=1;entryY=1;entryDx=0;entryDy=0;exitX=0;exitY=1;exitDx=0;exitDy=0;" edge="1" parent="1" source="mFl43g079NNbkRZYTGJ_-6" target="mFl43g079NNbkRZYTGJ_-6">
          <mxGeometry width="50" height="50" relative="1" as="geometry">
            <mxPoint x="360" y="270" as="sourcePoint" />
            <mxPoint x="410" y="220" as="targetPoint" />
            <Array as="points">
              <mxPoint x="380" y="150" />
              <mxPoint x="520" y="150" />
            </Array>
          </mxGeometry>
        </mxCell>
        <mxCell id="mFl43g079NNbkRZYTGJ_-30" value="" style="endArrow=none;dashed=1;html=1;dashPattern=1 3;strokeWidth=2;rounded=0;entryX=1;entryY=1;entryDx=0;entryDy=0;exitX=0;exitY=1;exitDx=0;exitDy=0;" edge="1" parent="1" source="mFl43g079NNbkRZYTGJ_-5" target="mFl43g079NNbkRZYTGJ_-5">
          <mxGeometry width="50" height="50" relative="1" as="geometry">
            <mxPoint x="360" y="270" as="sourcePoint" />
            <mxPoint x="410" y="220" as="targetPoint" />
            <Array as="points">
              <mxPoint x="190" y="150" />
              <mxPoint x="320" y="150" />
            </Array>
          </mxGeometry>
        </mxCell>
        <mxCell id="mFl43g079NNbkRZYTGJ_-31" value="" style="endArrow=none;dashed=1;html=1;rounded=0;entryX=0;entryY=1;entryDx=0;entryDy=0;exitX=1;exitY=0;exitDx=0;exitDy=0;exitPerimeter=0;" edge="1" parent="1" source="mFl43g079NNbkRZYTGJ_-23" target="mFl43g079NNbkRZYTGJ_-7">
          <mxGeometry width="50" height="50" relative="1" as="geometry">
            <mxPoint x="360" y="270" as="sourcePoint" />
            <mxPoint x="410" y="220" as="targetPoint" />
            <Array as="points">
              <mxPoint x="730" y="150" />
              <mxPoint x="540" y="150" />
            </Array>
          </mxGeometry>
        </mxCell>
        <mxCell id="mFl43g079NNbkRZYTGJ_-32" value="" style="endArrow=none;dashed=1;html=1;rounded=0;entryX=0;entryY=1;entryDx=0;entryDy=0;exitX=1;exitY=0;exitDx=0;exitDy=0;exitPerimeter=0;" edge="1" parent="1">
          <mxGeometry width="50" height="50" relative="1" as="geometry">
            <mxPoint x="730" y="125" as="sourcePoint" />
            <mxPoint x="540" y="125" as="targetPoint" />
            <Array as="points">
              <mxPoint x="730" y="150" />
              <mxPoint x="540" y="150" />
            </Array>
          </mxGeometry>
        </mxCell>
        <mxCell id="mFl43g079NNbkRZYTGJ_-33" value="" style="endArrow=none;dashed=1;html=1;rounded=0;entryX=0.989;entryY=-0.033;entryDx=0;entryDy=0;entryPerimeter=0;exitX=-0.006;exitY=0.033;exitDx=0;exitDy=0;exitPerimeter=0;" edge="1" parent="1" source="mFl43g079NNbkRZYTGJ_-27" target="mFl43g079NNbkRZYTGJ_-27">
          <mxGeometry width="50" height="50" relative="1" as="geometry">
            <mxPoint x="360" y="270" as="sourcePoint" />
            <mxPoint x="410" y="220" as="targetPoint" />
            <Array as="points">
              <mxPoint x="530" y="350" />
              <mxPoint x="710" y="350" />
            </Array>
          </mxGeometry>
        </mxCell>
        <mxCell id="mFl43g079NNbkRZYTGJ_-34" value="" style="endArrow=none;dashed=1;html=1;rounded=0;entryX=1;entryY=1;entryDx=0;entryDy=0;" edge="1" parent="1" target="mFl43g079NNbkRZYTGJ_-10">
          <mxGeometry width="50" height="50" relative="1" as="geometry">
            <mxPoint x="360" y="320" as="sourcePoint" />
            <mxPoint x="410" y="220" as="targetPoint" />
            <Array as="points">
              <mxPoint x="360" y="350" />
              <mxPoint x="500" y="350" />
            </Array>
          </mxGeometry>
        </mxCell>
        <mxCell id="mFl43g079NNbkRZYTGJ_-35" value="" style="endArrow=none;dashed=1;html=1;rounded=0;entryX=1;entryY=1;entryDx=0;entryDy=0;exitX=0;exitY=1;exitDx=0;exitDy=0;" edge="1" parent="1" source="mFl43g079NNbkRZYTGJ_-9" target="mFl43g079NNbkRZYTGJ_-9">
          <mxGeometry width="50" height="50" relative="1" as="geometry">
            <mxPoint x="360" y="270" as="sourcePoint" />
            <mxPoint x="410" y="220" as="targetPoint" />
            <Array as="points">
              <mxPoint x="190" y="350" />
              <mxPoint x="340" y="350" />
            </Array>
          </mxGeometry>
        </mxCell>
      </root>
    </mxGraphModel>
  </diagram>
</mxfile>
